<svg xmlns="http://www.w3.org/2000/svg" viewBox="0 0 512 512">
<rect width="512" height="512" rx="134" fill="#15171d"/>
<g transform="translate(95,84) scale(0.35)"><path fill="#ffce00" fill-rule="evenodd" d="M 611.090 17.822 C 603.322 33.211, 563.581 119.999, 548.678 154.122 C 544.023 164.780, 532.340 191.275, 522.715 213 C 494.259 277.236, 490.190 286.517, 481.285 307.500 C 476.617 318.500, 468.064 338.525, 462.279 352 C 456.493 365.475, 449.165 382.800, 445.994 390.500 C 439.462 406.361, 427.846 433.988, 416.593 460.431 C 412.396 470.293, 409.308 478.700, 409.731 479.113 C 410.154 479.526, 439.525 480.180, 475 480.567 C 510.475 480.953, 546.307 481.546, 554.627 481.885 L 569.755 482.500 551.500 531 C 541.459 557.675, 525.356 599.443, 515.715 623.817 C 502.968 656.043, 498.545 668.272, 499.501 668.639 C 500.728 669.110, 525.962 668.020, 596.500 664.451 C 612.450 663.644, 649.125 661.859, 678 660.485 C 744.013 657.342, 819.219 652.736, 824.640 651.504 C 827.777 650.790, 828.426 648.129, 825.730 647.029 C 823.090 645.951, 786.024 643.697, 726.500 640.993 C 702.850 639.919, 678.775 638.798, 673 638.502 C 667.225 638.205, 646.975 637.303, 628 636.497 C 593.022 635.011, 557.776 633.003, 557.165 632.461 C 556.830 632.163, 566.836 604.916, 575.513 582.500 C 578.068 575.900, 584.366 559.250, 589.509 545.500 C 594.652 531.750, 601.606 513.300, 604.963 504.500 C 621.699 460.619, 628.103 442.976, 627.594 442.152 C 627.287 441.655, 610.939 440.964, 591.267 440.617 C 509.476 439.176, 490.465 438.753, 489.803 438.360 C 489.419 438.133, 490.707 433.572, 492.665 428.224 C 506.198 391.254, 517.702 357.466, 534.963 304 C 540.024 288.325, 544.556 274.375, 545.035 273 C 559.324 231.999, 619.235 17.662, 617.599 13.398 C 616.474 10.466, 613.930 12.195, 611.090 17.822 M 384 323.083 C 369.425 323.505, 325.550 324.562, 286.500 325.432 C 106.026 329.453, 13.607 333.255, 12.280 336.713 C 10.896 340.318, 17.652 340.879, 100 343.996 C 151.488 345.945, 158.613 346.267, 233.500 350.039 C 294.974 353.134, 366.305 358.147, 367.779 359.474 C 368.334 359.973, 348.777 408.391, 328.993 455.500 C 321.370 473.650, 311.256 497.950, 306.515 509.500 C 301.775 521.050, 295.366 536.474, 292.273 543.775 C 288.922 551.687, 287.024 557.390, 287.575 557.891 C 288.608 558.831, 347.850 560.674, 408 561.636 C 429.725 561.984, 447.667 562.413, 447.872 562.589 C 448.246 562.912, 447.365 565.121, 431.560 603.500 C 419.108 633.737, 414.297 645.317, 409.955 655.500 C 407.844 660.450, 400.966 676.650, 394.670 691.500 C 388.374 706.350, 380.660 724.125, 377.526 731 C 374.393 737.875, 370.736 745.931, 369.400 748.902 C 368.064 751.874, 366.789 754.123, 366.567 753.900 C 366.152 753.485, 373.647 716.296, 380.958 682.500 C 388.764 646.411, 391.437 633.103, 390.969 632.646 C 390.540 632.226, 372.778 632.811, 289.500 635.987 C 259.039 637.148, 191.717 640.321, 162 641.996 C 152.375 642.539, 131.450 643.666, 115.500 644.502 C 78.774 646.427, 77 646.638, 77 649.075 C 77 650.220, 77.885 651.155, 79.250 651.453 C 83.869 652.462, 149.464 656.135, 214 658.998 C 267.717 661.382, 289.336 662.753, 333.500 666.579 C 344.500 667.532, 353.872 668.636, 354.327 669.033 C 354.782 669.430, 354.233 674.422, 353.107 680.127 C 350.372 693.989, 344.322 725.107, 337.483 760.500 C 329.535 801.632, 311.276 893.740, 303.552 931.670 C 296.331 967.123, 296.094 969, 298.837 969 C 300.219 969, 303.604 963.365, 312.506 946.250 C 319.014 933.737, 330.619 911.575, 338.296 897 C 345.973 882.425, 357.425 860.600, 363.744 848.500 C 370.064 836.400, 378.967 819.525, 383.529 811 C 411.963 757.863, 441.795 697.998, 461.017 655.500 C 462.261 652.750, 465.957 644.650, 469.231 637.500 C 477.026 620.478, 499.456 568.659, 506.577 551.224 C 509.660 543.676, 513.525 534.424, 515.165 530.664 C 516.806 526.904, 517.932 523.265, 517.668 522.576 C 517.295 521.606, 504.733 521.174, 461.844 520.655 C 386.292 519.740, 350 518.837, 350 517.871 C 350 517.425, 351.077 514.683, 352.394 511.780 C 353.711 508.876, 364.691 481.750, 376.795 451.500 C 388.899 421.250, 405.371 380.112, 413.401 360.082 C 421.430 340.053, 428 323.290, 428 322.832 C 428 321.919, 423.278 321.946, 384 323.083 M 594.500 329.049 C 580.750 329.419, 566.904 329.784, 563.732 329.861 L 557.963 330 547.146 352.250 C 541.197 364.488, 536.673 374.639, 537.093 374.810 C 537.513 374.980, 552.177 373.305, 569.679 371.087 C 600.708 367.155, 643.169 362.107, 679.500 358.029 C 695.176 356.270, 730.494 352.748, 785 347.508 C 793.525 346.688, 814.450 344.658, 831.500 342.996 C 848.550 341.334, 872.570 339.113, 884.877 338.060 C 907.002 336.167, 909.802 335.533, 908.702 332.666 C 907.951 330.709, 899.388 330.181, 849 328.981 C 804.753 327.927, 634.509 327.973, 594.500 329.049"/></g>
</svg>
